# xmcd
#
# Track frame offsets:
#	150
#	35230
#	66952
#	105345
#	139930
#	172182
#	210767
#	244087
#	280847
#	317632
#
# Disc length: 4613 seconds
#
# Revision: 1
# Processed by: cddbd v1.5.1PL0 Copyright (c) Steve Scherf et al.
# Submitted via: EasyCDDAExtractor 7.0.5.1
#
DISCID=9012030a
DTITLE=Various Artist - Remix Culture - More Positive Energy From Stress Reco
DTITLE=rds
DYEAR=1994
DGENRE=House
TTITLE0=Balouga Boys - Hip Hop (Balougaloo Mix)
TTITLE1=Joy For Life - The Riffmeister
TTITLE2=Route 66 - Revolution (Reefa! Remix)
TTITLE3=Anthony White - Love Me Tonight (Extended Club Mix)
TTITLE4=Riviera Splash - I Love Paris (Pigalle Club Mix)
TTITLE5=Coyote - Troy (Clova Mix)
TTITLE6=Xelcia - Workbaby! (Tin Tin Out Remix)
TTITLE7=Chris and James - Calm Down (Original Mix)
TTITLE8=Johnny Vicious meets Kathy Brown - Turn Me Out
TTITLE9=Hustlers Convention - Just Can't Give It Up (Hustlers Uptown Mix)
EXTD=
EXTT0=
EXTT1=
EXTT2=
EXTT3=
EXTT4=
EXTT5=
EXTT6=
EXTT7=
EXTT8=
EXTT9=
PLAYORDER=
